<!DOCTYPE svg PUBLIC "-//W3C//DTD SVG 1.1//EN" "http://www.w3.org/Graphics/SVG/1.1/DTD/svg11.dtd">
<!-- Uploaded to: SVG Repo, www.svgrepo.com, Transformed by: SVG Repo Mixer Tools -->
<svg height="209px" width="209px" version="1.1" id="_x32_" xmlns="http://www.w3.org/2000/svg" xmlns:xlink="http://www.w3.org/1999/xlink" viewBox="0 0 512.00 512.00" xml:space="preserve" fill="#000000" stroke="#000000">
<g id="SVGRepo_bgCarrier" stroke-width="0"/>
<g id="SVGRepo_tracerCarrier" stroke-linecap="round" stroke-linejoin="round"/>
<g id="SVGRepo_iconCarrier"> <style type="text/css"> .st0{fill:#ffffff;} </style> <g> <polygon class="st0" points="193.431,261.016 211.237,261.016 318.569,261.016 312.062,334.41 256,348.67 199.938,334.41 196.059,290.703 138.856,290.703 146.742,379.683 256,407.465 365.262,379.683 380.403,208.788 188.801,208.788 183.74,151.682 385.467,151.682 390.52,94.696 121.481,94.696 136.224,261.016 "/> <path class="st0" d="M20.366,0l0.984,10.627l41.882,452.361L256,512l192.767-49.012L491.634,0H20.366z M402.505,423.462 L256,460.713l-146.505-37.251L74.888,49.711h362.223L402.505,423.462z"/> </g> </g>
</svg>